<svg width="80" height="80" viewBox="0 0 80 80" fill="none" xmlns="http://www.w3.org/2000/svg">
<path d="M34.6409 4.48288C36.4818 -0.492077 43.5182 -0.492076 45.3591 4.48288L52.5927 24.0312C53.1715 25.5953 54.4047 26.8285 55.9688 27.4073L75.5171 34.6409C80.4921 36.4818 80.4921 43.5182 75.5171 45.3591L55.9688 52.5927C54.4047 53.1715 53.1715 54.4047 52.5927 55.9688L45.3591 75.5171C43.5182 80.4921 36.4818 80.4921 34.6409 75.5171L27.4073 55.9688C26.8285 54.4047 25.5953 53.1715 24.0312 52.5927L4.48288 45.3591C-0.492077 43.5182 -0.492076 36.4818 4.48288 34.6409L24.0312 27.4073C25.5953 26.8285 26.8285 25.5953 27.4073 24.0312L34.6409 4.48288Z" fill="#D9D9D9"/>
</svg>
