<svg width="44" height="44" viewBox="0 0 44 44" fill="none" xmlns="http://www.w3.org/2000/svg">
<path fill-rule="evenodd" clip-rule="evenodd" d="M22.0367 0C34.1623 0.0201667 44 9.86883 44 22C44 34.1422 34.144 44 22 44C9.85783 44 0 34.1422 0 22C0 9.86883 9.8395 0.0201667 21.9652 0H22.0367ZM28.809 29.3333H15.1928C16.3643 37.1543 19.3032 42.1667 22 42.1667C24.6987 42.1667 27.6375 37.1543 28.809 29.3333ZM40.7898 29.3333H30.6643C29.8833 34.8058 28.2425 39.237 26.1085 41.7468C32.835 40.3535 38.3387 35.6052 40.7898 29.3333ZM13.3375 29.3333H3.21017C5.66317 35.6052 11.1668 40.3535 17.8933 41.7468C15.7593 39.237 14.1185 34.8058 13.3375 29.3333ZM13.112 16.5H2.596C1.98917 18.6377 1.2375 22.7132 2.596 27.5H13.112C12.7673 24.1743 12.7178 20.3042 13.112 16.5ZM29.0455 16.5H14.9563C14.5988 19.8 14.5438 23.6995 14.9563 27.5H29.0455C29.4048 24.1798 29.4562 20.295 29.0455 16.5ZM41.4058 16.5H30.8898C31.0035 17.5853 31.4545 22.0348 30.8898 27.5H41.4058C42.7643 22.7113 42.0127 18.6358 41.4058 16.5ZM17.8933 2.25317C11.1668 3.6465 5.66317 8.39483 3.21017 14.6667H13.3375C14.1185 9.19417 15.7593 4.76117 17.8933 2.25317ZM28.809 14.6667C27.6375 6.84567 24.6987 1.83333 22 1.83333C19.3032 1.83333 16.3643 6.84567 15.1928 14.6667H28.809ZM26.1085 2.25317C28.2425 4.76117 29.8833 9.19417 30.6643 14.6667H40.7898C38.3387 8.39483 32.835 3.6465 26.1085 2.25317Z" fill="white"/>
</svg>
